<?xml version="1.0" encoding="UTF-8"?>
<svg width="800" height="600" viewBox="0 0 800 600" xmlns="http://www.w3.org/2000/svg">
  <!-- Background -->
  <rect width="800" height="600" fill="#f8f9fa"/>
  
  <!-- Browser Chrome -->
  <rect width="800" height="60" fill="#e9ecef"/>
  <circle cx="30" cy="30" r="8" fill="#ff5f56"/>
  <circle cx="50" cy="30" r="8" fill="#ffbd2e"/>
  <circle cx="70" cy="30" r="8" fill="#27ca3f"/>
  <rect x="120" y="20" width="560" height="20" rx="10" fill="#ffffff" stroke="#dee2e6"/>
  <text x="130" y="33" font-family="Arial, sans-serif" font-size="12" fill="#6c757d">https://proofkit.dev - ProofKit Dashboard</text>
  
  <!-- Header -->
  <rect x="0" y="60" width="800" height="80" fill="#ffffff" stroke="#dee2e6" stroke-width="1"/>
  <text x="40" y="100" font-family="Arial, sans-serif" font-size="24" font-weight="bold" fill="#2c3e50">ProofKit</text>
  <text x="40" y="120" font-family="Arial, sans-serif" font-size="14" fill="#6c757d">Quality Certificate Generator</text>
  <rect x="600" y="80" width="160" height="40" rx="20" fill="#3498db"/>
  <text x="670" y="103" font-family="Arial, sans-serif" font-size="14" fill="white">Upload CSV</text>
  
  <!-- Main Content Area -->
  <rect x="40" y="160" width="720" height="420" fill="#ffffff" stroke="#dee2e6" stroke-width="1" rx="8"/>
  
  <!-- Upload Section -->
  <rect x="60" y="180" width="340" height="180" fill="#f8f9fa" stroke="#dee2e6" stroke-width="2" stroke-dasharray="10,5" rx="8"/>
  <circle cx="230" cy="250" r="30" fill="#3498db" opacity="0.2"/>
  <text x="230" y="255" font-family="Arial, sans-serif" font-size="24" text-anchor="middle" fill="#3498db">📁</text>
  <text x="230" y="280" font-family="Arial, sans-serif" font-size="16" text-anchor="middle" fill="#2c3e50">Drop CSV file here</text>
  <text x="230" y="300" font-family="Arial, sans-serif" font-size="12" text-anchor="middle" fill="#6c757d">or click to browse</text>
  <text x="230" y="330" font-family="Arial, sans-serif" font-size="10" text-anchor="middle" fill="#6c757d">Max 10MB • 200k rows</text>
  
  <!-- Spec JSON Section -->
  <rect x="420" y="180" width="320" height="180" fill="#ffffff" stroke="#dee2e6" stroke-width="1" rx="8"/>
  <text x="440" y="200" font-family="Arial, sans-serif" font-size="14" font-weight="bold" fill="#2c3e50">Specification JSON</text>
  <rect x="440" y="210" width="280" height="120" fill="#f8f9fa" stroke="#dee2e6" stroke-width="1"/>
  <text x="450" y="225" font-family="Monaco, monospace" font-size="10" fill="#2c3e50">{</text>
  <text x="450" y="240" font-family="Monaco, monospace" font-size="10" fill="#2c3e50">  "target_temp_C": 180.0,</text>
  <text x="450" y="255" font-family="Monaco, monospace" font-size="10" fill="#2c3e50">  "hold_time_s": 600,</text>
  <text x="450" y="270" font-family="Monaco, monospace" font-size="10" fill="#2c3e50">  "sensor_uncertainty_C": 2.0</text>
  <text x="450" y="285" font-family="Monaco, monospace" font-size="10" fill="#2c3e50">}</text>
  <rect x="640" y="340" width="80" height="25" rx="4" fill="#27ae60"/>
  <text x="675" y="355" font-family="Arial, sans-serif" font-size="11" text-anchor="middle" fill="white">Generate</text>
  
  <!-- Recent Results -->
  <text x="60" y="390" font-family="Arial, sans-serif" font-size="16" font-weight="bold" fill="#2c3e50">Recent Certificates</text>
  
  <!-- Result Row 1 - PASS -->
  <rect x="60" y="400" width="680" height="50" fill="#d4edda" stroke="#c3e6cb" stroke-width="1" rx="4"/>
  <rect x="70" y="410" width="60" height="30" fill="#27ae60" rx="4"/>
  <text x="100" y="428" font-family="Arial, sans-serif" font-size="12" font-weight="bold" text-anchor="middle" fill="white">PASS</text>
  <text x="150" y="420" font-family="Arial, sans-serif" font-size="12" fill="#155724">Powder Coat Cure - 180°C/10min</text>
  <text x="150" y="435" font-family="Arial, sans-serif" font-size="10" fill="#6c757d">Generated: 2025-08-05 10:30 UTC • Hash: a1b2c3d4e5f6...</text>
  <rect x="580" y="415" width="50" height="20" fill="#3498db" rx="3"/>
  <text x="605" y="427" font-family="Arial, sans-serif" font-size="9" text-anchor="middle" fill="white">PDF</text>
  <rect x="640" y="415" width="50" height="20" fill="#f39c12" rx="3"/>
  <text x="665" y="427" font-family="Arial, sans-serif" font-size="9" text-anchor="middle" fill="white">ZIP</text>
  <rect x="700" y="415" width="30" height="20" fill="#6c757d" rx="3"/>
  <text x="715" y="427" font-family="Arial, sans-serif" font-size="9" text-anchor="middle" fill="white">📱</text>
  
  <!-- Result Row 2 - FAIL -->
  <rect x="60" y="460" width="680" height="50" fill="#f8d7da" stroke="#f5c6cb" stroke-width="1" rx="4"/>
  <rect x="70" y="470" width="60" height="30" fill="#dc3545" rx="4"/>
  <text x="100" y="488" font-family="Arial, sans-serif" font-size="12" font-weight="bold" text-anchor="middle" fill="white">FAIL</text>
  <text x="150" y="480" font-family="Arial, sans-serif" font-size="12" fill="#721c24">Insufficient Hold Time - 7.2min vs 10min</text>
  <text x="150" y="495" font-family="Arial, sans-serif" font-size="10" fill="#6c757d">Generated: 2025-08-05 09:15 UTC • Hash: b2c3d4e5f6a7...</text>
  <rect x="580" y="475" width="50" height="20" fill="#3498db" rx="3"/>
  <text x="605" y="487" font-family="Arial, sans-serif" font-size="9" text-anchor="middle" fill="white">PDF</text>
  <rect x="640" y="475" width="50" height="20" fill="#f39c12" rx="3"/>
  <text x="665" y="487" font-family="Arial, sans-serif" font-size="9" text-anchor="middle" fill="white">ZIP</text>
  <rect x="700" y="475" width="30" height="20" fill="#6c757d" rx="3"/>
  <text x="715" y="487" font-family="Arial, sans-serif" font-size="9" text-anchor="middle" fill="white">📱</text>
  
  <!-- Status Bar -->
  <rect x="0" y="580" width="800" height="20" fill="#2c3e50"/>
  <text x="20" y="593" font-family="Arial, sans-serif" font-size="10" fill="white">ProofKit v0.5 • Online • 99.9% uptime • Processing: 1.2s avg</text>
  <text x="680" y="593" font-family="Arial, sans-serif" font-size="10" fill="white">3,247 certificates</text>
</svg>