<svg xmlns="http://www.w3.org/2000/svg" width="256" height="256" viewBox="0 0 256 256" role="img">
  <defs>
    <linearGradient id="g1" x1="0" y1="0" x2="1" y2="1">
      <stop offset="0" stop-color="#0050FF"/>
      <stop offset="1" stop-color="#3B82F6"/>
    </linearGradient>
    <filter id="soft" x="-10%" y="-10%" width="120%" height="120%">
      <feGaussianBlur in="SourceAlpha" stdDeviation="2" result="blur"/>
      <feOffset in="blur" dx="0" dy="1" result="offset"/>
      <feMerge><feMergeNode in="offset"/><feMergeNode in="SourceGraphic"/></feMerge>
    </filter>
  </defs>
  <!-- rounded container -->
  <rect x="24" y="24" width="208" height="208" rx="40" fill="#F6F7FB"/>
  <!-- document with folded corner -->
  <g transform="translate(68,56)">
    <path d="M24 0h64l32 32v88c0 8.837-7.163 16-16 16H24c-8.837 0-16-7.163-16-16V16C8 7.163 15.163 0 24 0z" fill="url(#g1)" filter="url(#soft)"/>
    <path d="M88 0v24c0 4.418 3.582 8 8 8h24" fill="#3B82F6"/>
  </g>
  <!-- manifest dots -->
  <g transform="translate(84,116)" fill="#93C5FD">
    <rect width="6" height="6" rx="2"/><rect x="12" width="6" height="6" rx="2"/><rect x="24" width="6" height="6" rx="2"/>
    <rect y="12" width="6" height="6" rx="2"/><rect x="12" y="12" width="6" height="6" rx="2"/><rect x="24" y="12" width="6" height="6" rx="2"/>
  </g>
  <!-- check -->
  <path d="M102 164l18 18 38-38" fill="none" stroke="#23C48E" stroke-width="12" stroke-linecap="round" stroke-linejoin="round"/>
</svg>