<svg xmlns="http://www.w3.org/2000/svg" width="640" height="160" viewBox="0 0 640 160" role="img">
  <rect width="640" height="160" rx="20" fill="#0A0A0A"/>
  <defs>
    <linearGradient id="g2" x1="0" y1="0" x2="1" y2="1">
      <stop offset="0" stop-color="#3B82F6"/>
      <stop offset="1" stop-color="#0050FF"/>
    </linearGradient>
  </defs>
  <g transform="translate(8,8) scale(0.55)">
    <rect x="24" y="24" width="208" height="208" rx="40" fill="#0F1115"/>
    <g transform="translate(68,56)">
      <path d="M24 0h64l32 32v88c0 8.837-7.163 16-16 16H24c-8.837 0-16-7.163-16-16V16C8 7.163 15.163 0 24 0z" fill="url(#g2)"/>
      <path d="M88 0v24c0 4.418 3.582 8 8 8h24" fill="#60A5FA"/>
    </g>
    <g transform="translate(84,116)" fill="#60A5FA">
      <rect width="6" height="6" rx="2"/><rect x="12" width="6" height="6" rx="2"/><rect x="24" width="6" height="6" rx="2"/>
      <rect y="12" width="6" height="6" rx="2"/><rect x="12" y="12" width="6" height="6" rx="2"/><rect x="24" y="12" width="6" height="6" rx="2"/>
    </g>
    <path d="M102 164l18 18 38-38" fill="none" stroke="#23C48E" stroke-width="12" stroke-linecap="round" stroke-linejoin="round"/>
  </g>
  <g transform="translate(210,54)">
    <text x="0" y="36" font-family="Inter, ui-sans-serif, system-ui, Segoe UI, Roboto, Helvetica, Arial" font-size="44" font-weight="800" fill="#FFFFFF">ProofKit</text>
    <text x="230" y="36" font-family="Inter, ui-sans-serif, system-ui, Segoe UI, Roboto, Helvetica, Arial" font-size="14" fill="#A1A1AA">tamper‑evident certificates</text>
  </g>
</svg>